<svg xmlns="http://www.w3.org/2000/svg" viewBox="0 0 600 600" width="700" height="700">
<defs>
  <radialGradient id="bgG" cx="50%" cy="50%" r="60%">
    <stop offset="0%" stop-color="#0C1A2E"/>
    <stop offset="100%" stop-color="#07111F"/>
  </radialGradient>
  <radialGradient id="innG" cx="50%" cy="50%" r="50%">
    <stop offset="0%" stop-color="#112040"/>
    <stop offset="100%" stop-color="#07111F"/>
  </radialGradient>
  <filter id="glow" x="-40%" y="-40%" width="180%" height="180%">
    <feGaussianBlur stdDeviation="3" result="b"/>
    <feMerge><feMergeNode in="b"/><feMergeNode in="SourceGraphic"/></feMerge>
  </filter>
  <pattern id="grid" width="44" height="44" patternUnits="userSpaceOnUse" patternTransform="rotate(45 300 300)">
    <line x1="0" y1="0" x2="0" y2="44" stroke="rgba(201,168,76,0.07)" stroke-width="0.8"/>
  </pattern>
  <path id="arc_tech" d="M 152.78,215.00 A 170.0,170.0 0 0,1 447.22,215.00" fill="none"/>
  <path id="arc_people" d="M 447.22,215.00 A 170.0,170.0 0 0,1 300.00,470.00" fill="none"/>
  <path id="arc_process" d="M 152.78,215.00 A 170.0,170.0 0 0,0 300.00,470.00" fill="none"/>
</defs>

<rect width="600" height="600" fill="url(#bgG)"/>
<rect width="600" height="600" fill="url(#grid)"/>
<polygon points="138.36,77.52 143.05,74.18 147.82,70.95 152.65,67.81 157.54,64.77 162.50,61.84 167.52,59.02 172.59,56.29 177.73,53.68 182.91,51.17 188.15,48.77 193.43,46.49 198.77,44.31 204.14,42.25 209.56,40.30 215.02,38.46 220.52,36.74 226.05,35.13 231.61,33.64 237.20,32.27 242.82,31.01 248.47,29.87 254.14,28.85 259.83,27.95 265.53,27.17 271.25,26.51 276.99,25.96 282.73,25.54 288.48,25.24 294.24,25.06 300.00,25.00 305.76,25.06 311.52,25.24 317.27,25.54 323.01,25.96 328.75,26.51 334.47,27.17 340.17,27.95 345.86,28.85 351.53,29.87 357.18,31.01 362.80,32.27 368.39,33.64 373.95,35.13 379.48,36.74 384.98,38.46 390.44,40.30 395.86,42.25 401.23,44.31 406.57,46.49 411.85,48.77 417.09,51.17 422.27,53.68 427.41,56.29 432.48,59.02 437.50,61.84 442.46,64.77 447.35,67.81 452.18,70.95 456.95,74.18 461.64,77.52 472.97,138.71 416.38,139.81 413.00,137.41 409.57,135.08 406.09,132.82 402.57,130.64 399.00,128.53 395.39,126.49 391.73,124.53 388.04,122.65 384.30,120.84 380.53,119.12 376.73,117.47 372.89,115.90 369.02,114.42 365.12,113.01 361.19,111.69 357.23,110.45 353.25,109.29 349.24,108.22 345.21,107.23 341.17,106.33 337.10,105.51 333.02,104.77 328.92,104.12 324.82,103.56 320.70,103.08 316.57,102.69 312.43,102.39 308.29,102.17 304.15,102.04 300.00,102.00 295.85,102.04 291.71,102.17 287.57,102.39 283.43,102.69 279.30,103.08 275.18,103.56 271.08,104.12 266.98,104.77 262.90,105.51 258.83,106.33 254.79,107.23 250.76,108.22 246.75,109.29 242.77,110.45 238.81,111.69 234.88,113.01 230.98,114.42 227.11,115.90 223.27,117.47 219.47,119.12 215.70,120.84 211.96,122.65 208.27,124.53 204.61,126.49 201.00,128.53 197.43,130.64 193.91,132.82 190.43,135.08 187.00,137.41 183.62,139.81 127.03,138.71" fill="#1A3A6B" stroke="#C9A84C" stroke-width="1.5"/>
<polygon points="522.48,138.36 525.82,143.05 529.05,147.82 532.19,152.65 535.23,157.54 538.16,162.50 540.98,167.52 543.71,172.59 546.32,177.73 548.83,182.91 551.23,188.15 553.51,193.43 555.69,198.77 557.75,204.14 559.70,209.56 561.54,215.02 563.26,220.52 564.87,226.05 566.36,231.61 567.73,237.20 568.99,242.82 570.13,248.47 571.15,254.14 572.05,259.83 572.83,265.53 573.49,271.25 574.04,276.99 574.46,282.73 574.76,288.48 574.94,294.24 575.00,300.00 574.94,305.76 574.76,311.52 574.46,317.27 574.04,323.01 573.49,328.75 572.83,334.47 572.05,340.17 571.15,345.86 570.13,351.53 568.99,357.18 567.73,362.80 566.36,368.39 564.87,373.95 563.26,379.48 561.54,384.98 559.70,390.44 557.75,395.86 555.69,401.23 553.51,406.57 551.23,411.85 548.83,417.09 546.32,422.27 543.71,427.41 540.98,432.48 538.16,437.50 535.23,442.46 532.19,447.35 529.05,452.18 525.82,456.95 522.48,461.64 461.29,472.97 460.19,416.38 462.59,413.00 464.92,409.57 467.18,406.09 469.36,402.57 471.47,399.00 473.51,395.39 475.47,391.73 477.35,388.04 479.16,384.30 480.88,380.53 482.53,376.73 484.10,372.89 485.58,369.02 486.99,365.12 488.31,361.19 489.55,357.23 490.71,353.25 491.78,349.24 492.77,345.21 493.67,341.17 494.49,337.10 495.23,333.02 495.88,328.92 496.44,324.82 496.92,320.70 497.31,316.57 497.61,312.43 497.83,308.29 497.96,304.15 498.00,300.00 497.96,295.85 497.83,291.71 497.61,287.57 497.31,283.43 496.92,279.30 496.44,275.18 495.88,271.08 495.23,266.98 494.49,262.90 493.67,258.83 492.77,254.79 491.78,250.76 490.71,246.75 489.55,242.77 488.31,238.81 486.99,234.88 485.58,230.98 484.10,227.11 482.53,223.27 480.88,219.47 479.16,215.70 477.35,211.96 475.47,208.27 473.51,204.61 471.47,201.00 469.36,197.43 467.18,193.91 464.92,190.43 462.59,187.00 460.19,183.62 461.29,127.03" fill="#C9A84C" stroke="#C9A84C" stroke-width="1.5"/>
<polygon points="461.64,522.48 456.95,525.82 452.18,529.05 447.35,532.19 442.46,535.23 437.50,538.16 432.48,540.98 427.41,543.71 422.27,546.32 417.09,548.83 411.85,551.23 406.57,553.51 401.23,555.69 395.86,557.75 390.44,559.70 384.98,561.54 379.48,563.26 373.95,564.87 368.39,566.36 362.80,567.73 357.18,568.99 351.53,570.13 345.86,571.15 340.17,572.05 334.47,572.83 328.75,573.49 323.01,574.04 317.27,574.46 311.52,574.76 305.76,574.94 300.00,575.00 294.24,574.94 288.48,574.76 282.73,574.46 276.99,574.04 271.25,573.49 265.53,572.83 259.83,572.05 254.14,571.15 248.47,570.13 242.82,568.99 237.20,567.73 231.61,566.36 226.05,564.87 220.52,563.26 215.02,561.54 209.56,559.70 204.14,557.75 198.77,555.69 193.43,553.51 188.15,551.23 182.91,548.83 177.73,546.32 172.59,543.71 167.52,540.98 162.50,538.16 157.54,535.23 152.65,532.19 147.82,529.05 143.05,525.82 138.36,522.48 127.03,461.29 183.62,460.19 187.00,462.59 190.43,464.92 193.91,467.18 197.43,469.36 201.00,471.47 204.61,473.51 208.27,475.47 211.96,477.35 215.70,479.16 219.47,480.88 223.27,482.53 227.11,484.10 230.98,485.58 234.88,486.99 238.81,488.31 242.77,489.55 246.75,490.71 250.76,491.78 254.79,492.77 258.83,493.67 262.90,494.49 266.98,495.23 271.08,495.88 275.18,496.44 279.30,496.92 283.43,497.31 287.57,497.61 291.71,497.83 295.85,497.96 300.00,498.00 304.15,497.96 308.29,497.83 312.43,497.61 316.57,497.31 320.70,496.92 324.82,496.44 328.92,495.88 333.02,495.23 337.10,494.49 341.17,493.67 345.21,492.77 349.24,491.78 353.25,490.71 357.23,489.55 361.19,488.31 365.12,486.99 369.02,485.58 372.89,484.10 376.73,482.53 380.53,480.88 384.30,479.16 388.04,477.35 391.73,475.47 395.39,473.51 399.00,471.47 402.57,469.36 406.09,467.18 409.57,464.92 413.00,462.59 416.38,460.19 472.97,461.29" fill="#1A3A6B" stroke="#C9A84C" stroke-width="1.5"/>
<polygon points="77.52,461.64 74.18,456.95 70.95,452.18 67.81,447.35 64.77,442.46 61.84,437.50 59.02,432.48 56.29,427.41 53.68,422.27 51.17,417.09 48.77,411.85 46.49,406.57 44.31,401.23 42.25,395.86 40.30,390.44 38.46,384.98 36.74,379.48 35.13,373.95 33.64,368.39 32.27,362.80 31.01,357.18 29.87,351.53 28.85,345.86 27.95,340.17 27.17,334.47 26.51,328.75 25.96,323.01 25.54,317.27 25.24,311.52 25.06,305.76 25.00,300.00 25.06,294.24 25.24,288.48 25.54,282.73 25.96,276.99 26.51,271.25 27.17,265.53 27.95,259.83 28.85,254.14 29.87,248.47 31.01,242.82 32.27,237.20 33.64,231.61 35.13,226.05 36.74,220.52 38.46,215.02 40.30,209.56 42.25,204.14 44.31,198.77 46.49,193.43 48.77,188.15 51.17,182.91 53.68,177.73 56.29,172.59 59.02,167.52 61.84,162.50 64.77,157.54 67.81,152.65 70.95,147.82 74.18,143.05 77.52,138.36 138.71,127.03 139.81,183.62 137.41,187.00 135.08,190.43 132.82,193.91 130.64,197.43 128.53,201.00 126.49,204.61 124.53,208.27 122.65,211.96 120.84,215.70 119.12,219.47 117.47,223.27 115.90,227.11 114.42,230.98 113.01,234.88 111.69,238.81 110.45,242.77 109.29,246.75 108.22,250.76 107.23,254.79 106.33,258.83 105.51,262.90 104.77,266.98 104.12,271.08 103.56,275.18 103.08,279.30 102.69,283.43 102.39,287.57 102.17,291.71 102.04,295.85 102.00,300.00 102.04,304.15 102.17,308.29 102.39,312.43 102.69,316.57 103.08,320.70 103.56,324.82 104.12,328.92 104.77,333.02 105.51,337.10 106.33,341.17 107.23,345.21 108.22,349.24 109.29,353.25 110.45,357.23 111.69,361.19 113.01,365.12 114.42,369.02 115.90,372.89 117.47,376.73 119.12,380.53 120.84,384.30 122.65,388.04 124.53,391.73 126.49,395.39 128.53,399.00 130.64,402.57 132.82,406.09 135.08,409.57 137.41,413.00 139.81,416.38 138.71,472.97" fill="#C9A84C" stroke="#C9A84C" stroke-width="1.5"/>
<path d="M 135.46,205.00 A 190,190 0 0,1 464.54,205.00 L 429.90,225.00 A 150,150 0 0,0 170.10,225.00 Z" fill="#0F4060" stroke="#C9A84C" stroke-width="1.2" opacity="0.92"/>
<path d="M 464.54,205.00 A 190,190 0 0,1 300.00,490.00 L 300.00,450.00 A 150,150 0 0,0 429.90,225.00 Z" fill="#0A3D28" stroke="#C9A84C" stroke-width="1.2" opacity="0.92"/>
<path d="M 300.00,490.00 A 190,190 0 0,1 135.46,205.00 L 170.10,225.00 A 150,150 0 0,0 300.00,450.00 Z" fill="#0F2850" stroke="#C9A84C" stroke-width="1.2" opacity="0.92"/>
<circle cx="300" cy="300" r="150" fill="none" stroke="#C9A84C" stroke-width="1" opacity="0.5"/>
<circle cx="300" cy="300" r="190" fill="none" stroke="#C9A84C" stroke-width="1" opacity="0.5"/>
<circle cx="300" cy="300" r="198" fill="none" stroke="#C9A84C" stroke-width="1" opacity="0.35"/>
<circle cx="300" cy="300" r="156" fill="none" stroke="#C9A84C" stroke-width="18" opacity="0.05" filter="url(#glow)"/>
<circle cx="300" cy="300" r="142" fill="url(#innG)"/>
<circle cx="300" cy="300" r="142" fill="none" stroke="#C9A84C" stroke-width="2" opacity="0.85"/>
<circle cx="300" cy="300" r="132" fill="none" stroke="#C9A84C" stroke-width="1" opacity="0.28"/>
<circle cx="300" cy="300" r="120" fill="none" stroke="#C9A84C" stroke-width="1" opacity="0.14"/>
<line x1="396.9" y1="203.1" x2="389.1" y2="210.9" stroke="#C9A84C" stroke-width="1" opacity="0.4"/>
<line x1="396.9" y1="396.9" x2="389.1" y2="389.1" stroke="#C9A84C" stroke-width="1" opacity="0.4"/>
<line x1="203.1" y1="396.9" x2="210.9" y2="389.1" stroke="#C9A84C" stroke-width="1" opacity="0.4"/>
<line x1="203.1" y1="203.1" x2="210.9" y2="210.9" stroke="#C9A84C" stroke-width="1" opacity="0.4"/>
<text x="300" y="282" text-anchor="middle" font-family="Cinzel,Georgia,serif" font-size="10" fill="#C9A84C" letter-spacing="4" opacity="0.75">DATA</text>
<text x="300" y="312" text-anchor="middle" font-family="Cinzel,Georgia,serif" font-size="22" font-weight="700" fill="#F0EEE8" letter-spacing="1">Governance</text>
<line x1="250" y1="324" x2="350" y2="324" stroke="#C9A84C" stroke-width="1" opacity="0.45"/>
<polygon points="300,328 304,332 300,336 296,332" fill="#C9A84C" opacity="0.8"/>
<text x="300.0" y="63.5" text-anchor="middle" dominant-baseline="middle" font-family="Cinzel,Georgia,serif" font-size="14" font-weight="700" fill="#C9A84C" letter-spacing="2">ACCESS</text>
<text x="536.5" y="300.0" text-anchor="middle" dominant-baseline="middle" font-family="Cinzel,Georgia,serif" font-size="14" font-weight="700" fill="#07111F" letter-spacing="2" transform="rotate(90,536.5,300.0)">SHARE</text>
<text x="300.0" y="536.5" text-anchor="middle" dominant-baseline="middle" font-family="Cinzel,Georgia,serif" font-size="14" font-weight="700" fill="#C9A84C" letter-spacing="2">USE</text>
<text x="63.5" y="300.0" text-anchor="middle" dominant-baseline="middle" font-family="Cinzel,Georgia,serif" font-size="14" font-weight="700" fill="#07111F" letter-spacing="2" transform="rotate(-90,63.5,300.0)">COLLECT</text>
<text font-family="Cinzel,Georgia,serif" font-size="9.5" font-weight="700" fill="#7EC8C8" letter-spacing="2"><textPath href="#arc_tech" startOffset="50%" text-anchor="middle">TECHNOLOGY</textPath></text>
<text font-family="Cinzel,Georgia,serif" font-size="9.5" font-weight="700" fill="#7EC890" letter-spacing="2"><textPath href="#arc_people" startOffset="50%" text-anchor="middle">PEOPLE</textPath></text>
<text font-family="Cinzel,Georgia,serif" font-size="9.5" font-weight="700" fill="#88AADD" letter-spacing="2"><textPath href="#arc_process" startOffset="50%" text-anchor="middle">PROCESS</textPath></text>
<polygon points="460.7,244.7 435.0,212.3 450.1,202.5" fill="#C9A84C" filter="url(#glow)"/>
<polygon points="267.6,466.9 308.4,460.8 309.4,478.8" fill="#C9A84C" filter="url(#glow)"/>
<polygon points="171.7,188.5 156.5,226.9 140.5,218.7" fill="#C9A84C" filter="url(#glow)"/>
<polygon points="300.0,153.0 305.0,158.0 300.0,163.0 295.0,158.0" fill="#C9A84C" filter="url(#glow)"/>
<polygon points="442.0,295.0 447.0,300.0 442.0,305.0 437.0,300.0" fill="#C9A84C" filter="url(#glow)"/>
<polygon points="300.0,437.0 305.0,442.0 300.0,447.0 295.0,442.0" fill="#C9A84C" filter="url(#glow)"/>
<polygon points="158.0,295.0 163.0,300.0 158.0,305.0 153.0,300.0" fill="#C9A84C" filter="url(#glow)"/>
</svg>