<svg xmlns="http://www.w3.org/2000/svg" viewBox="0 0 720 740" width="760" height="775">
<defs>
  <radialGradient id="bgG" cx="50%" cy="50%" r="60%">
    <stop offset="0%" stop-color="#0C1A2E"/>
    <stop offset="100%" stop-color="#07111F"/>
  </radialGradient>
  <radialGradient id="innG" cx="50%" cy="50%" r="50%">
    <stop offset="0%" stop-color="#0F2040"/>
    <stop offset="100%" stop-color="#07111F"/>
  </radialGradient>
  <filter id="glow" x="-50%" y="-50%" width="200%" height="200%">
    <feGaussianBlur stdDeviation="3" result="b"/>
    <feMerge><feMergeNode in="b"/><feMergeNode in="SourceGraphic"/></feMerge>
  </filter>
  <pattern id="grid" width="44" height="44" patternUnits="userSpaceOnUse" patternTransform="rotate(45 360 370)">
    <line x1="0" y1="0" x2="0" y2="44" stroke="rgba(201,168,76,0.06)" stroke-width="0.8"/>
  </pattern>
</defs>

<rect width="720" height="740" fill="url(#bgG)"/>
<rect width="720" height="740" fill="url(#grid)"/>
<path d="M 133.05,192.69 A 288,288 0 0,1 586.95,192.69 L 479.78,276.42 A 152,152 0 0,0 240.22,276.42 Z" fill="#112848" stroke="#C9A84C" stroke-width="1" opacity="0.95"/>
<path d="M 625.11,257.47 A 288,288 0 0,1 400.08,655.20 L 381.15,520.52 A 152,152 0 0,0 499.92,310.61 Z" fill="#162E52" stroke="#C9A84C" stroke-width="1" opacity="0.95"/>
<path d="M 324.90,655.85 A 288,288 0 0,1 92.97,262.11 L 219.07,313.06 A 152,152 0 0,0 341.48,520.87 Z" fill="#112848" stroke="#C9A84C" stroke-width="1" opacity="0.95"/>
<line x1="240.2" y1="276.4" x2="133.1" y2="192.7" stroke="#C9A84C" stroke-width="0.8" opacity="0.3"/>
<line x1="479.8" y1="276.4" x2="586.9" y2="192.7" stroke="#C9A84C" stroke-width="0.8" opacity="0.3"/>
<line x1="499.9" y1="310.6" x2="625.1" y2="257.5" stroke="#C9A84C" stroke-width="0.8" opacity="0.3"/>
<line x1="381.2" y1="520.5" x2="400.1" y2="655.2" stroke="#C9A84C" stroke-width="0.8" opacity="0.3"/>
<line x1="341.5" y1="520.9" x2="324.9" y2="655.9" stroke="#C9A84C" stroke-width="0.8" opacity="0.3"/>
<line x1="219.1" y1="313.1" x2="93.0" y2="262.1" stroke="#C9A84C" stroke-width="0.8" opacity="0.3"/>
<circle cx="360" cy="370" r="288" fill="none" stroke="#C9A84C" stroke-width="1" opacity="0.4"/>
<circle cx="360" cy="370" r="152" fill="none" stroke="#C9A84C" stroke-width="1" opacity="0.45"/>
<polygon points="101.53,168.06 106.18,162.25 110.96,156.55 115.87,150.95 120.90,145.47 126.05,140.10 131.33,134.85 136.72,129.73 142.23,124.72 147.85,119.84 153.58,115.10 159.42,110.48 165.36,105.99 171.40,101.65 177.54,97.44 183.77,93.37 190.09,89.44 196.50,85.66 202.99,82.02 209.56,78.53 216.21,75.20 222.94,72.01 229.74,68.98 236.60,66.10 243.52,63.38 250.51,60.81 257.55,58.41 264.65,56.17 271.79,54.08 278.98,52.16 286.22,50.41 293.49,48.81 300.79,47.39 308.12,46.13 315.49,45.03 322.87,44.11 330.27,43.35 337.69,42.76 345.12,42.34 352.56,42.08 360.00,42.00 367.44,42.08 374.88,42.34 382.31,42.76 389.73,43.35 397.13,44.11 404.51,45.03 411.88,46.13 419.21,47.39 426.51,48.81 433.78,50.41 441.02,52.16 448.21,54.08 455.35,56.17 462.45,58.41 469.49,60.81 476.48,63.38 483.40,66.10 490.26,68.98 497.06,72.01 503.79,75.20 510.44,78.53 517.01,82.02 523.50,85.66 529.91,89.44 536.23,93.37 542.46,97.44 548.60,101.65 554.64,105.99 560.58,110.48 566.42,115.10 572.15,119.84 577.77,124.72 583.28,129.73 588.67,134.85 593.95,140.10 599.10,145.47 604.13,150.95 609.04,156.55 613.82,162.25 618.47,168.06 641.41,238.78 590.89,189.61 586.74,184.42 582.47,179.32 578.08,174.33 573.59,169.43 568.98,164.63 564.27,159.95 559.45,155.36 554.53,150.90 549.51,146.54 544.39,142.30 539.18,138.17 533.87,134.17 528.48,130.28 522.99,126.52 517.43,122.89 511.78,119.38 506.06,116.00 500.26,112.75 494.38,109.64 488.44,106.65 482.44,103.81 476.36,101.10 470.23,98.53 464.05,96.10 457.81,93.81 451.51,91.66 445.18,89.65 438.79,87.79 432.37,86.08 425.91,84.51 419.42,83.09 412.89,81.81 406.34,80.69 399.76,79.71 393.17,78.88 386.56,78.21 379.93,77.68 373.29,77.30 366.65,77.08 360.00,77.00 353.35,77.08 346.71,77.30 340.07,77.68 333.44,78.21 326.83,78.88 320.24,79.71 313.66,80.69 307.11,81.81 300.58,83.09 294.09,84.51 287.63,86.08 281.21,87.79 274.82,89.65 268.49,91.66 262.19,93.81 255.95,96.10 249.77,98.53 243.64,101.10 237.56,103.81 231.56,106.65 225.62,109.64 219.74,112.75 213.94,116.00 208.22,119.38 202.57,122.89 197.01,126.52 191.52,130.28 186.13,134.17 180.82,138.17 175.61,142.30 170.49,146.54 165.47,150.90 160.55,155.36 155.73,159.95 151.02,164.63 146.41,169.43 141.92,174.33 137.53,179.32 133.26,184.42 129.11,189.61 83.34,229.04" fill="#081828" stroke="#C9A84C" stroke-width="1" opacity="0.8"/>
<polygon points="661.93,241.84 664.78,248.79 667.48,255.80 670.01,262.88 672.39,270.00 674.59,277.19 676.64,284.42 678.51,291.69 680.23,299.01 681.77,306.36 683.14,313.75 684.34,321.16 685.38,328.61 686.24,336.07 686.93,343.55 687.45,351.05 687.80,358.55 687.98,366.06 687.98,373.58 687.81,381.09 687.47,388.60 686.96,396.09 686.28,403.57 685.42,411.04 684.40,418.48 683.20,425.90 681.84,433.29 680.30,440.64 678.60,447.96 676.73,455.24 674.70,462.47 672.49,469.65 670.13,476.79 667.60,483.86 664.91,490.88 662.07,497.83 659.06,504.72 655.89,511.53 652.57,518.27 649.10,524.93 645.48,531.51 641.70,538.01 637.78,544.42 633.71,550.74 629.50,556.96 625.15,563.08 620.65,569.11 616.03,575.02 611.26,580.83 606.37,586.53 601.34,592.12 596.19,597.59 590.92,602.94 585.52,608.17 580.01,613.27 574.38,618.25 568.63,623.09 562.78,627.81 556.82,632.38 550.76,636.82 544.60,641.12 538.34,645.28 531.99,649.29 525.55,653.16 519.02,656.88 512.40,660.44 505.71,663.86 498.94,667.12 492.10,670.22 485.19,673.17 478.21,675.96 471.17,678.58 464.08,681.05 456.92,683.35 449.72,685.49 442.47,687.46 435.18,689.27 427.85,690.91 420.48,692.38 413.08,693.68 405.65,694.81 332.94,679.32 400.78,660.15 407.41,659.14 414.02,657.98 420.61,656.66 427.16,655.20 433.67,653.59 440.15,651.83 446.58,649.92 452.97,647.86 459.31,645.66 465.60,643.31 471.83,640.82 478.00,638.19 484.12,635.41 490.16,632.50 496.14,629.45 502.05,626.26 507.88,622.94 513.64,619.49 519.31,615.90 524.90,612.19 530.41,608.35 535.82,604.38 541.14,600.30 546.37,596.09 551.50,591.76 556.53,587.31 561.46,582.75 566.28,578.08 570.99,573.30 575.59,568.42 580.08,563.43 584.45,558.34 588.71,553.15 592.84,547.86 596.85,542.48 600.74,537.01 604.50,531.45 608.14,525.81 611.64,520.08 615.01,514.28 618.25,508.40 621.35,502.45 624.32,496.43 627.15,490.34 629.83,484.19 632.38,477.98 634.78,471.71 637.04,465.39 639.15,459.02 641.12,452.60 642.93,446.14 644.60,439.64 646.12,433.10 647.49,426.53 648.71,419.93 649.78,413.31 650.70,406.66 651.46,399.99 652.07,393.31 652.53,386.61 652.83,379.91 652.98,373.20 652.98,366.48 652.82,359.77 652.51,353.07 652.05,346.37 651.43,339.69 650.66,333.02 649.73,326.38 648.66,319.75 647.43,313.15 646.05,306.58 644.53,300.05 642.85,293.55 641.02,287.09 639.05,280.67 636.93,274.31 634.67,267.99 632.26,261.72 629.71,255.52 617.42,196.37" fill="#081828" stroke="#C9A84C" stroke-width="1" opacity="0.8"/>
<polygon points="320.03,695.56 312.58,694.55 305.16,693.38 297.77,692.04 290.41,690.53 283.08,688.85 275.80,687.01 268.56,685.00 261.37,682.82 254.23,680.48 247.15,677.97 240.12,675.31 233.16,672.48 226.26,669.50 219.44,666.36 212.69,663.06 206.01,659.61 199.42,656.00 192.91,652.25 186.49,648.35 180.16,644.30 173.92,640.11 167.79,635.78 161.75,631.31 155.82,626.70 149.99,621.95 144.27,617.07 138.67,612.07 133.18,606.94 127.82,601.68 122.57,596.30 117.45,590.80 112.46,585.19 107.59,579.46 102.86,573.62 98.26,567.68 93.80,561.63 89.48,555.49 85.31,549.24 81.27,542.90 77.39,536.47 73.65,529.96 70.06,523.35 66.62,516.67 63.34,509.91 60.21,503.08 57.24,496.18 54.43,489.21 51.78,482.18 49.29,475.09 46.97,467.95 44.80,460.75 42.81,453.51 40.98,446.22 39.32,438.89 37.82,431.53 36.50,424.14 35.34,416.71 34.36,409.26 33.54,401.79 32.90,394.31 32.43,386.81 32.13,379.30 32.00,371.79 32.05,364.28 32.27,356.77 32.66,349.26 33.22,341.77 33.95,334.29 34.85,326.83 35.93,319.40 37.17,311.99 38.58,304.61 40.17,297.26 41.92,289.96 43.83,282.69 45.92,275.47 48.16,268.30 50.58,261.19 53.15,254.13 55.88,247.13 105.65,191.90 88.34,260.24 85.89,266.49 83.59,272.80 81.44,279.15 79.43,285.56 77.57,292.01 75.86,298.50 74.30,305.02 72.88,311.59 71.62,318.18 70.51,324.80 69.55,331.44 68.74,338.10 68.09,344.78 67.59,351.47 67.24,358.18 67.04,364.89 67.00,371.60 67.12,378.31 67.38,385.02 67.81,391.71 68.38,398.40 69.11,405.07 69.99,411.73 71.02,418.36 72.20,424.97 73.54,431.54 75.02,438.09 76.66,444.60 78.44,451.07 80.37,457.50 82.45,463.88 84.67,470.21 87.04,476.49 89.55,482.72 92.20,488.88 94.99,494.98 97.93,501.02 101.00,506.99 104.20,512.89 107.54,518.71 111.02,524.45 114.62,530.11 118.35,535.69 122.21,541.19 126.19,546.59 130.30,551.90 134.53,557.11 138.87,562.23 143.33,567.24 147.91,572.15 152.59,576.96 157.39,581.65 162.29,586.24 167.29,590.71 172.40,595.07 177.60,599.30 182.90,603.42 188.30,607.42 193.78,611.29 199.35,615.03 205.00,618.65 210.74,622.13 216.56,625.49 222.44,628.70 228.41,631.79 234.44,634.73 240.53,637.54 246.69,640.20 252.91,642.73 259.19,645.11 265.52,647.35 271.89,649.44 278.32,651.38 284.78,653.18 291.29,654.83 297.83,656.33 304.41,657.68 311.01,658.88 317.64,659.92 324.29,660.82 381.66,679.74" fill="#081828" stroke="#C9A84C" stroke-width="1" opacity="0.8"/>
<circle cx="360" cy="370" r="332" fill="none" stroke="#C9A84C" stroke-width="1.2" stroke-dasharray="7,5" opacity="0.3"/>
<circle cx="360" cy="370" r="159" fill="none" stroke="#C9A84C" stroke-width="14" opacity="0.05" filter="url(#glow)"/>
<circle cx="360" cy="370" r="147" fill="url(#innG)"/>
<circle cx="360" cy="370" r="147" fill="none" stroke="#C9A84C" stroke-width="2" opacity="0.85"/>
<circle cx="360" cy="370" r="136" fill="none" stroke="#C9A84C" stroke-width="1" opacity="0.25"/>
<circle cx="360" cy="370" r="123" fill="none" stroke="#C9A84C" stroke-width="1" opacity="0.12"/>
<line x1="460.4" y1="269.6" x2="451.9" y2="278.1" stroke="#C9A84C" stroke-width="1" opacity="0.3"/>
<line x1="460.4" y1="470.4" x2="451.9" y2="461.9" stroke="#C9A84C" stroke-width="1" opacity="0.3"/>
<line x1="259.6" y1="470.4" x2="268.1" y2="461.9" stroke="#C9A84C" stroke-width="1" opacity="0.3"/>
<line x1="259.6" y1="269.6" x2="268.1" y2="278.1" stroke="#C9A84C" stroke-width="1" opacity="0.3"/>
<text x="360" y="357" text-anchor="middle" font-family="Cinzel,Georgia,serif" font-size="21" font-weight="700" fill="#F0EEE8" letter-spacing="1">Planning &amp;</text>
<text x="360" y="384" text-anchor="middle" font-family="Cinzel,Georgia,serif" font-size="21" font-weight="700" fill="#F0EEE8" letter-spacing="1">Strategy</text>
<line x1="312" y1="396" x2="408" y2="396" stroke="#C9A84C" stroke-width="1" opacity="0.4"/>
<polygon points="360,402 363,406 360,410 357,406" fill="#C9A84C" opacity="0.55"/>
<text x="360.0" y="145.0" text-anchor="middle" dominant-baseline="middle" font-family="Cinzel,Georgia,serif" font-size="24" font-weight="700" font-style="normal" fill="#C9A84C" transform="rotate(0,360.0,145.0) translate(0,-33.0)">↕</text>
<text x="360.0" y="145.0" text-anchor="middle" dominant-baseline="middle" font-family="Cinzel,Georgia,serif" font-size="13" font-weight="700" font-style="normal" fill="rgba(201,168,76,0.65)" transform="rotate(0,360.0,145.0) translate(0,-11.0)">1.</text>
<text x="360.0" y="145.0" text-anchor="middle" dominant-baseline="middle" font-family="Cinzel,Georgia,serif" font-size="15" font-weight="700" font-style="normal" fill="#F0EEE8" transform="rotate(0,360.0,145.0) translate(0,11.0)">Exploring</text>
<text x="360.0" y="145.0" text-anchor="middle" dominant-baseline="middle" font-family="Cinzel,Georgia,serif" font-size="15" font-weight="700" font-style="normal" fill="#F0EEE8" transform="rotate(0,360.0,145.0) translate(0,33.0)">&amp; Defining</text>
<text x="554.9" y="482.5" text-anchor="middle" dominant-baseline="middle" font-family="Cinzel,Georgia,serif" font-size="24" font-weight="700" font-style="normal" fill="#C9A84C" transform="rotate(-60,554.9,482.5) translate(0,-33.0)">↕</text>
<text x="554.9" y="482.5" text-anchor="middle" dominant-baseline="middle" font-family="Cinzel,Georgia,serif" font-size="13" font-weight="700" font-style="normal" fill="rgba(201,168,76,0.65)" transform="rotate(-60,554.9,482.5) translate(0,-11.0)">2.</text>
<text x="554.9" y="482.5" text-anchor="middle" dominant-baseline="middle" font-family="Cinzel,Georgia,serif" font-size="15" font-weight="700" font-style="normal" fill="#F0EEE8" transform="rotate(-60,554.9,482.5) translate(0,11.0)">Analyzing &amp;</text>
<text x="554.9" y="482.5" text-anchor="middle" dominant-baseline="middle" font-family="Cinzel,Georgia,serif" font-size="15" font-weight="700" font-style="normal" fill="#F0EEE8" transform="rotate(-60,554.9,482.5) translate(0,33.0)">Enhancing</text>
<text x="165.1" y="482.5" text-anchor="middle" dominant-baseline="middle" font-family="Cinzel,Georgia,serif" font-size="24" font-weight="700" font-style="normal" fill="#C9A84C" transform="rotate(60,165.1,482.5) translate(0,-33.0)">↕</text>
<text x="165.1" y="482.5" text-anchor="middle" dominant-baseline="middle" font-family="Cinzel,Georgia,serif" font-size="13" font-weight="700" font-style="normal" fill="rgba(201,168,76,0.65)" transform="rotate(60,165.1,482.5) translate(0,-11.0)">3.</text>
<text x="165.1" y="482.5" text-anchor="middle" dominant-baseline="middle" font-family="Cinzel,Georgia,serif" font-size="15" font-weight="700" font-style="normal" fill="#F0EEE8" transform="rotate(60,165.1,482.5) translate(0,11.0)">Exploiting &amp;</text>
<text x="165.1" y="482.5" text-anchor="middle" dominant-baseline="middle" font-family="Cinzel,Georgia,serif" font-size="15" font-weight="700" font-style="normal" fill="#F0EEE8" transform="rotate(60,165.1,482.5) translate(0,33.0)">Assessing</text>
<text x="171.2" y="261.0" text-anchor="middle" dominant-baseline="middle" font-family="Cinzel,Georgia,serif" font-size="9" font-weight="700" fill="rgba(201,168,76,0.55)" letter-spacing="2" transform="rotate(390,171.2,261.0) translate(0,-13)">CONTINUAL</text>
<text x="171.2" y="261.0" text-anchor="middle" dominant-baseline="middle" font-family="Cinzel,Georgia,serif" font-size="9" font-weight="700" fill="rgba(201,168,76,0.55)" letter-spacing="2" transform="rotate(390,171.2,261.0) translate(0,0)">INNOVATION</text>
<text x="171.2" y="261.0" text-anchor="middle" dominant-baseline="middle" font-family="Cinzel,Georgia,serif" font-size="9" font-weight="700" fill="rgba(201,168,76,0.55)" letter-spacing="2" transform="rotate(390,171.2,261.0) translate(0,13)">IMPROVEMENT</text>
<polygon points="641.41,238.78 589.65,184.04 612.96,165.16" fill="#C9A84C" filter="url(#glow)"/>
<polygon points="332.94,679.32 406.23,661.86 410.92,691.49" fill="#C9A84C" filter="url(#glow)"/>
<polygon points="105.65,191.90 84.13,264.10 56.12,253.35" fill="#C9A84C" filter="url(#glow)"/>
<polygon points="360.0,218.0 365.0,223.0 360.0,228.0 355.0,223.0" fill="#C9A84C" filter="url(#glow)"/>
<polygon points="507.0,365.0 512.0,370.0 507.0,375.0 502.0,370.0" fill="#C9A84C" filter="url(#glow)"/>
<polygon points="360.0,512.0 365.0,517.0 360.0,522.0 355.0,517.0" fill="#C9A84C" filter="url(#glow)"/>
<polygon points="213.0,365.0 218.0,370.0 213.0,375.0 208.0,370.0" fill="#C9A84C" filter="url(#glow)"/>
</svg>